<svg width="72" height="72" viewBox="0 0 72 72" fill="none" xmlns="http://www.w3.org/2000/svg">
  <rect width="72" height="72" rx="22" fill="url(#g)"/>
  <path d="M24.5 19.5C18.5 24.9 15 32.8 15 40.8C15 51.3 22.7 57.5 31.1 57.5C39.4 57.5 42.7 52.8 43.7 48.1C44.6 43.6 43.4 39 40.5 35.7C37 31.6 31.9 29.7 27.5 27.8C23.7 26.2 21.8 24.2 21.8 21.6C21.8 18.6 24.2 15.7 28.8 15.7C33.1 15.7 35.8 17.6 37.9 20.2L42.8 15.8C39.6 11.8 34.8 9.6 28.7 9.6C18.1 9.6 12.2 16.7 12.2 23.2C12.2 30.1 16.7 33.6 22.6 36.1C28.4 38.6 33.7 40.1 36.2 43.1C38 45.2 38.5 47.4 37.9 50C37.3 52.9 35.1 55.9 30.9 55.9C25.4 55.9 20.7 52 18.9 45.8L12 47.8C14.7 57.2 22.8 63 31 63C41.3 63 48.8 56.4 50.7 47.5C52.1 40.9 50.2 34.8 45.7 29.6C41.2 24.4 34.8 21.8 29.9 19.9C27.9 19.2 26.1 18.6 24.5 19.5Z" fill="white" fill-opacity="0.95"/>
  <defs>
    <linearGradient id="g" x1="9" y1="8" x2="63" y2="64" gradientUnits="userSpaceOnUse">
      <stop stop-color="#112B5C"/>
      <stop offset="0.45" stop-color="#1A4BA8"/>
      <stop offset="1" stop-color="#25C3AF"/>
    </linearGradient>
  </defs>
</svg>
