<svg width="96" height="96" viewBox="0 0 96 96" fill="none" xmlns="http://www.w3.org/2000/svg">
<defs>
  <linearGradient id="g" x1="0" y1="0" x2="96" y2="96" gradientUnits="userSpaceOnUse">
    <stop stop-color="#57D6FF"/>
    <stop offset="1" stop-color="#1AC7A2"/>
  </linearGradient>
</defs>
<rect x="4" y="4" width="88" height="88" rx="26" fill="url(#g)"/>
<path d="M30 54.5C30 43.1782 39.1782 34 50.5 34C59.0604 34 66.3949 39.2505 69.4616 46.7066C65.2285 44.6948 60.4919 43.5714 55.5 43.5714C42.5213 43.5714 32 53.8823 32 66.5957C32 68.1456 32.1564 69.6597 32.4543 71.1232C30.8914 68.3191 30 64.9702 30 61.4286V54.5Z" fill="white" fill-opacity="0.95"/>
<path d="M53.9038 70C44.9823 70 37.75 62.7677 37.75 53.8462C37.75 50.6608 38.672 47.6907 40.2623 45.1875C44.1589 50.7673 50.6101 54.4231 57.9154 54.4231C63.3739 54.4231 68.3554 52.3833 72.1391 49.0232C72.2164 49.6516 72.25 50.2915 72.25 50.9391C72.25 61.4514 63.7242 70 53.2119 70H53.9038Z" fill="white"/>
</svg>