<svg width="48" height="48" viewBox="0 0 48 48" fill="none" xmlns="http://www.w3.org/2000/svg">
  <rect x="2" y="2" width="44" height="44" rx="14" fill="#EAF7F7"/>
  <path d="M24 11C18.2 11 14 15.2 14 21C14 26.1 17 29.5 20.6 33.4C22.5 35.5 23.3 37 24 39C24.7 37 25.5 35.5 27.4 33.4C31 29.5 34 26.1 34 21C34 15.2 29.8 11 24 11ZM24 15.5C27.2 15.5 29.5 17.8 29.5 21C29.5 24.2 27.2 26.5 24 26.5C20.8 26.5 18.5 24.2 18.5 21C18.5 17.8 20.8 15.5 24 15.5Z" fill="#112B5C"/>
  <path d="M17 31.5C19 30 21.5 29.2 24 29.2C26.5 29.2 29 30 31 31.5" stroke="#25C3AF" stroke-width="2.6" stroke-linecap="round"/>
</svg>
