<svg width="720" height="420" viewBox="0 0 720 420" fill="none" xmlns="http://www.w3.org/2000/svg">
<rect width="720" height="420" rx="28" fill="#EAF8F8"/>
<circle cx="514" cy="94" r="68" fill="#B9F1EB"/>
<circle cx="182" cy="248" r="120" fill="#D5F1FF"/>
<rect x="124" y="178" width="116" height="120" rx="24" fill="#1AC7A2"/>
<circle cx="182" cy="138" r="44" fill="#C9D8E4"/>
<rect x="94" y="292" width="176" height="86" rx="24" fill="white" fill-opacity="0.94"/>
<rect x="128" y="328" width="108" height="16" rx="8" fill="#D1D5DB"/>
<rect x="146" y="356" width="72" height="12" rx="6" fill="#E5E7EB"/>
<rect x="436" y="178" width="190" height="148" rx="28" fill="white" fill-opacity="0.95"/>
<path d="M530 216c-16 0-28 13-28 28 0 26 28 44 28 44s28-18 28-44c0-15-12-28-28-28Z" fill="#0EA5E9"/>
<path d="M530 230c-8 0-14 7-14 14 0 10 14 22 14 22s14-12 14-22c0-7-6-14-14-14Z" fill="white"/>
<rect x="466" y="336" width="132" height="18" rx="9" fill="#E5E7EB"/>
<rect x="498" y="364" width="68" height="12" rx="6" fill="#E5E7EB"/>
</svg>